<?xml version="1.0" encoding="utf-8"?>
<!-- Generator: Adobe Illustrator 23.0.1, SVG Export Plug-In . SVG Version: 6.00 Build 0)  -->
<svg version="1.1" id="_x32_" xmlns="http://www.w3.org/2000/svg" xmlns:xlink="http://www.w3.org/1999/xlink" x="0px" y="0px"
	 viewBox="0 0 512 512" style="enable-background:new 0 0 512 512;" xml:space="preserve">
<style type="text/css">
	.st0{fill:#FFF03B;}
	.st1{fill:#FFFFFF;}
</style>
<path class="st0" d="M428.5,506.2h-345c-41.1,0-74.8-33.7-74.8-74.8v-345c0-41.1,33.7-74.8,74.8-74.8h345
	c41.1,0,74.8,33.7,74.8,74.8v345C503.3,472.6,469.6,506.2,428.5,506.2z"/>
<path class="st1" d="M-367.1,765.3c-19,0-34.4,15.5-34.4,34.7c0,19.2,15.4,34.7,34.4,34.7s34.4-15.5,34.4-34.7
	C-332.7,780.8-348.1,765.3-367.1,765.3z"/>
<path class="st1" d="M-206.2,703.4c-6-6.1-14.4-9.9-23.6-9.9H-266c-2.9,0-5.6-1.7-6.9-4.5l-10.8-24.2c-5.4-12-17.3-19.8-30.5-19.8
	H-420c-13.2,0-25.1,7.8-30.5,19.8v0l-10.8,24.2c-1.2,2.8-4,4.6-6.9,4.5h-36.1c-9.2,0-17.6,3.8-23.6,9.9c-6,6-9.7,14.5-9.7,23.7
	v155.4c0,9.2,3.7,17.6,9.7,23.7c6,6.1,14.4,9.9,23.6,9.9h150.5h124c9.2,0,17.6-3.8,23.6-9.9c6-6,9.7-14.5,9.7-23.7V727.1
	C-196.5,717.9-200.2,709.5-206.2,703.4z M-222.3,882.5c0,2.2-0.9,4.1-2.2,5.5c-1.4,1.4-3.2,2.2-5.3,2.2h-124h-150.5
	c-2.1,0-3.9-0.8-5.3-2.2c-1.4-1.4-2.2-3.3-2.2-5.5V727.1c0-2.2,0.9-4.1,2.2-5.5c1.4-1.4,3.2-2.2,5.3-2.2h36.1
	c13.2,0,25.1-7.8,30.4-19.8l10.8-24.2c1.3-2.8,4-4.5,6.9-4.5h105.9c2.9,0,5.6,1.7,6.9,4.5l10.8,24.2c5.3,12,17.3,19.8,30.4,19.8
	h36.1c2.1,0,3.9,0.8,5.3,2.2c1.4,1.4,2.2,3.3,2.2,5.5L-222.3,882.5L-222.3,882.5z"/>
<path class="st1" d="M-367.1,723.8c-20.9,0-39.8,8.6-53.4,22.3c-13.7,13.8-22.1,32.8-22.1,53.8c0,21,8.4,40,22.1,53.8
	c13.6,13.8,32.6,22.3,53.4,22.3c20.9,0,39.8-8.6,53.4-22.3c13.7-13.7,22.1-32.8,22.1-53.8c0-21-8.4-40-22.1-53.8
	C-327.2,732.4-346.2,723.8-367.1,723.8z M-327.7,839.8c-10.1,10.2-24,16.5-39.3,16.5c-15.4,0-29.2-6.3-39.3-16.5
	c-10.1-10.2-16.3-24.2-16.3-39.8c0-15.6,6.2-29.6,16.3-39.8c10.1-10.2,24-16.4,39.3-16.5c15.4,0,29.2,6.3,39.3,16.5
	c10.1,10.2,16.3,24.2,16.3,39.8C-311.4,815.6-317.6,829.6-327.7,839.8z"/>
<g>
	<g>
		<path class="st1" d="M256,238.6c-22.4,0-40.6,18.3-40.6,41c0,22.6,18.2,41,40.6,41s40.6-18.3,40.6-41
			C296.6,256.9,278.4,238.6,256,238.6z"/>
		<path class="st1" d="M401.5,180.4h-38.3c-8.5,0-16.3-5.1-19.8-12.9l-11.5-25.7c-3.5-7.8-11.2-12.9-19.8-12.9H199.8
			c-8.5,0-16.3,5.1-19.8,12.9l-11.4,25.7c-3.5,7.9-11.3,12.9-19.8,12.9h-38.3c-12,0-21.7,9.8-21.7,21.9v164.8
			c0,12.1,9.7,21.9,21.7,21.9H270h131.4c12,0,21.7-9.8,21.7-21.9V202.3C423.2,190.2,413.5,180.4,401.5,180.4z M256,355.5
			c-41.6,0-75.3-34-75.3-75.9c0-41.9,33.7-76,75.3-76c41.6,0,75.3,34,75.3,76C331.3,321.5,297.6,355.5,256,355.5z"/>
	</g>
	<rect x="361.3" y="211.6" class="st0" width="26.9" height="26.9"/>
</g>
</svg>
